Source : Workprint
General
Complete name : Mothers.Little.Helpers.2010.WP.XviD-TA.avi
Format : AVI
Format/Info : Audio Video Interleave
File size : 857 MiB
Duration : 1h 26mn
Overall bit rate : 1 386 Kbps
Writing library : VirtualDub build 32661/release

Video
ID : 0
Format : MPEG-4 Visual
Format profile : AdvancedSimple@L5
Format settings, BVOP : Yes
Format settings, QPel : No
Format settings, GMC : No warppoints
Format settings, Matrix : Default (H.263)
Codec ID : XVID
Codec ID/Hint : XviD
Duration : 1h 26mn
Bit rate : 1 213 Kbps
Width : 720 pixels
Height : 480 pixels
Display aspect ratio : 1.500
Frame rate : 29.970 fps
Standard : NTSC
Resolution : 24 bits
Colorimetry : 4:2:0
Scan type : Progressive
Bits/(Pixel*Frame) : 0.117
Stream size : 750 MiB (87%)
Writing library : XviD 1.1.2 (UTC 2006-11-01)

Audio
ID : 1
Format : MPEG Audio
Format version : Version 1
Format profile : Layer 3
Codec ID : 55
Codec ID/Hint : MP3
Duration : 1h 26mn
Bit rate mode : Constant
Bit rate : 160 Kbps
Channel(s) : 2 channels
Sampling rate : 44.1 KHz
Resolution : 16 bits
Video delay : 33ms
Stream size : 98.9 MiB (12%)
Alignment : Aligned on interleaves
Interleave, duration : 26 ms (0.78 video frame)
Interleave, preload duration : 809 ms
Writing library : LAME3.97

Plot:
A story of love, sex... and high school tuition. Meet Sam Lowell. Friend, lover, student, teacher... and owner of his very own escort service. Along with his "mother's little helpers" Sam learns about love and life in this sophisticated take on the classic high school sex comedy that explores a generation of kids growing up too fast and their parents who are desperately trying to stay young.

Denise Richards	 ...	Judy
Kyle Gallner	 ...	Sam
Sarah Hyland	 ...	Courtney
James Belushi	 ...	Dan Fox
Kathryn Morris	 ...	Alison
Rebecca Mader	 ...	Mary
Maeve Quinlan	 ...	Kitty Lowell
Ryan Pinkston	 ...	Jimmy Rissoli
Robert Belushi	 ...	Shawn Fox

SCREENSHOTS: 
http://bayimg.com/kaMaLAaCg 
http://bayimg.com/kaMaNAAcG